<?xml version="1.0" standalone="no"?>
<!DOCTYPE svg PUBLIC "-//W3C//DTD SVG 20010904//EN"
 "http://www.w3.org/TR/2001/REC-SVG-20010904/DTD/svg10.dtd">
<svg version="1.0" xmlns="http://www.w3.org/2000/svg"
 width="500.000000pt" height="500.000000pt" viewBox="0 0 500.000000 500.000000"
 preserveAspectRatio="xMidYMid meet">

<g transform="translate(0.000000,500.000000) scale(0.100000,-0.100000)"
fill="#000000" stroke="none">
<path d="M2345 4223 c-138 -20 -327 -97 -441 -181 -45 -32 -50 -40 -43 -60 8
-22 9 -22 61 18 114 88 300 161 471 186 37 5 47 10 45 23 -3 17 -38 22 -93 14z"/>
<path d="M3065 3974 c-97 -50 -132 -158 -82 -254 29 -57 64 -82 126 -88 64 -6
92 2 131 34 43 37 63 80 63 140 0 130 -133 223 -238 168z m124 -42 c93 -50 93
-199 2 -247 -84 -43 -191 24 -191 120 0 67 69 145 129 145 15 0 42 -8 60 -18z"/>
<path d="M3357 3983 c-10 -9 -8 -326 1 -341 7 -9 39 -12 128 -10 104 3 119 5
122 21 3 15 -7 17 -102 17 l-106 0 0 144 c0 79 -3 151 -6 160 -6 16 -26 21
-37 9z"/>
<path d="M2664 3967 c-2 -7 -3 -85 -2 -172 3 -134 5 -160 18 -160 12 0 16 16
18 72 2 50 8 75 19 85 14 11 26 2 97 -75 45 -48 86 -87 93 -87 30 0 13 32 -60
113 -44 48 -78 89 -76 91 2 2 37 31 77 65 66 57 81 81 49 81 -7 0 -50 -32 -96
-70 -46 -39 -88 -70 -92 -70 -5 0 -9 32 -9 70 0 56 -3 70 -15 70 -9 0 -18 -6
-21 -13z"/>
<path d="M3662 3808 c3 -146 5 -173 18 -173 13 0 15 27 18 173 2 168 2 172
-18 172 -20 0 -20 -4 -18 -172z"/>
<path d="M3767 3973 c-13 -12 -8 -318 5 -331 15 -15 129 -16 180 -2 21 6 44
21 53 33 20 29 20 105 -1 128 -14 15 -14 23 -3 53 29 81 -25 126 -152 126 -42
0 -79 -3 -82 -7z m179 -48 c30 -19 32 -60 4 -75 -11 -6 -48 -10 -83 -8 l-62 3
-3 38 c-5 56 12 71 71 63 27 -3 60 -12 73 -21z m8 -136 c32 -15 42 -54 21 -85
-14 -22 -22 -24 -93 -24 l-78 0 -2 41 c-5 72 2 79 68 79 33 0 70 -5 84 -11z"/>
<path d="M4090 3805 c0 -149 2 -175 15 -175 12 0 15 14 15 70 0 79 8 89 63 73
19 -5 40 -22 54 -43 36 -57 74 -100 89 -100 22 0 17 16 -20 65 -51 66 -53 80
-17 114 24 22 31 38 31 66 0 76 -44 105 -160 105 l-70 0 0 -175z m167 120 c15
-10 23 -25 23 -45 0 -42 -34 -62 -102 -58 l-53 3 -3 48 c-4 66 10 81 67 73 25
-3 55 -13 68 -21z"/>
<path d="M4402 3808 c3 -146 5 -173 18 -173 13 0 15 27 18 173 2 168 2 172
-18 172 -20 0 -20 -4 -18 -172z"/>
<path d="M4502 3808 l3 -173 114 -3 c118 -3 153 6 130 34 -8 10 -39 14 -110
14 l-99 0 0 55 0 55 95 0 c88 0 95 2 95 20 0 18 -8 20 -92 22 l-93 3 0 55 0
55 105 5 c146 7 131 24 -25 28 l-125 3 2 -173z"/>
<path d="M1770 3930 c0 -8 5 -22 10 -30 9 -13 10 -13 10 0 0 8 -5 22 -10 30
-9 13 -10 13 -10 0z"/>
<path d="M1700 3844 c0 -11 7 -29 16 -40 14 -18 15 -18 8 6 -3 14 -10 32 -15
40 -7 12 -8 11 -9 -6z"/>
<path d="M1625 3735 c-29 -53 -29 -54 -10 -75 l19 -21 23 45 c22 43 24 88 4
101 -4 2 -20 -20 -36 -50z"/>
<path d="M1945 3660 c3 -19 18 -61 34 -92 34 -67 20 -67 -27 0 l-33 47 7 -40
c10 -63 29 -94 107 -180 63 -69 66 -75 27 -45 -24 19 -69 58 -99 87 -30 29
-57 50 -59 48 -7 -7 39 -69 82 -109 44 -41 38 -40 -34 6 l-45 29 40 -36 c58
-53 215 -185 220 -185 2 0 2 10 0 22 -4 17 8 10 52 -33 58 -55 55 -40 -7 41
-41 54 -46 68 -15 40 24 -20 21 -13 -16 40 -64 93 -67 98 -44 80 17 -14 17
-14 7 5 -9 17 -146 228 -190 291 -11 17 -12 15 -7 -16z"/>
<path d="M1560 3545 c0 -13 24 -51 48 -77 28 -31 19 -37 -16 -12 -13 9 -25 14
-28 11 -11 -10 65 -76 124 -107 34 -18 61 -35 59 -37 -2 -2 -43 15 -92 37 -48
22 -90 40 -93 40 -3 0 16 -22 43 -50 27 -27 55 -50 62 -50 7 0 13 -4 13 -9 0
-5 16 -15 36 -21 19 -7 33 -14 31 -16 -2 -2 -33 5 -68 15 -35 11 -65 19 -66
17 -7 -7 97 -67 138 -80 l44 -14 -40 -1 c-22 0 -57 3 -77 8 -21 5 -38 8 -38 6
0 -11 67 -43 130 -62 l75 -22 -80 -1 -80 -1 65 -24 c39 -15 89 -25 125 -26
l60 -2 -82 -15 c-46 -9 -83 -20 -83 -24 0 -10 66 -27 130 -33 29 -3 55 -6 56
-8 2 -2 -24 -9 -58 -16 -86 -18 -63 -36 47 -37 47 0 88 -4 92 -7 3 -4 0 -7 -8
-7 -8 0 -34 -10 -59 -21 l-45 -21 28 -15 c21 -11 36 -12 55 -5 15 5 47 15 71
22 l44 12 -40 24 c-23 13 -48 39 -57 58 -9 20 -25 41 -35 48 -10 7 -26 29 -35
48 -8 19 -20 42 -24 50 -30 51 -43 90 -37 109 4 14 -1 30 -14 47 -12 15 -21
38 -21 52 0 14 -7 34 -16 43 -9 10 -17 27 -18 37 -1 19 -22 39 -100 98 -57 42
-33 1 36 -60 60 -54 51 -52 -39 11 -34 24 -68 43 -75 43 -7 0 -30 11 -51 25
-20 14 -37 23 -37 20z"/>
<path d="M3429 3502 c-14 -12 -20 -25 -16 -36 7 -17 13 -20 60 -30 18 -4 27
-13 27 -26 0 -16 -7 -20 -33 -20 -18 0 -39 6 -46 13 -11 10 -13 9 -9 -3 8 -27
53 -35 83 -16 37 24 28 48 -25 66 -26 9 -45 22 -45 30 0 19 51 26 71 9 9 -8
14 -8 14 -1 0 12 -31 32 -48 32 -5 0 -20 -8 -33 -18z"/>
<path d="M3575 3510 c-3 -6 5 -10 19 -10 24 0 25 -3 29 -62 l3 -63 2 63 c2 59
3 62 27 62 14 0 25 5 25 10 0 6 -22 10 -49 10 -28 0 -53 -4 -56 -10z"/>
<path d="M3774 3510 c-11 -4 -26 -21 -33 -37 -33 -80 68 -140 115 -68 36 55
-22 129 -82 105z m70 -32 c23 -32 20 -54 -9 -76 -57 -45 -118 27 -72 86 16 20
64 14 81 -10z"/>
<path d="M3927 3514 c-4 -4 -6 -37 -6 -73 1 -36 4 -54 6 -38 3 18 10 27 23 27
10 0 28 -12 39 -27 l21 -28 -12 28 c-9 21 -9 30 0 39 16 16 15 43 -1 56 -17
15 -61 25 -70 16z m68 -39 c0 -15 -8 -21 -32 -23 -30 -3 -33 -1 -33 23 0 24 3
26 33 23 24 -2 32 -8 32 -23z"/>
<path d="M4080 3443 l0 -73 45 0 c25 0 45 5 45 10 0 6 -18 10 -40 10 -36 0
-40 3 -40 24 0 21 5 25 38 29 l37 4 -37 1 c-33 2 -38 5 -38 27 0 23 4 25 41
25 24 0 38 4 34 10 -3 5 -24 9 -46 8 l-39 -1 0 -74z"/>
<path d="M2553 3301 c-29 -14 -48 -32 -63 -60 -11 -23 -18 -41 -16 -41 2 0 -2
-25 -9 -55 -7 -30 -11 -55 -9 -55 2 0 19 25 39 55 36 57 54 70 115 79 24 4 39
13 45 29 15 34 67 35 97 2 16 -17 30 -24 41 -19 22 8 22 26 0 22 -10 -2 -28 8
-40 22 -15 17 -33 26 -60 27 -21 2 -51 5 -68 8 -19 3 -46 -2 -72 -14z m65 -7
c-15 -8 -32 -23 -38 -34 -6 -11 -15 -20 -21 -20 -17 0 5 30 37 51 16 10 34 19
39 19 6 -1 -2 -7 -17 -16z"/>
<path d="M1961 3289 c9 -13 49 -47 90 -76 103 -73 132 -103 148 -151 8 -24 30
-56 53 -76 69 -62 77 -60 22 5 -19 23 -42 56 -51 73 l-16 31 22 -19 c12 -11
31 -35 42 -53 12 -19 24 -32 27 -29 3 3 -2 14 -11 24 -23 25 -22 39 1 21 18
-14 -5 8 -105 101 -70 66 -244 182 -222 149z"/>
<path d="M1930 3256 c0 -21 33 -45 91 -67 l53 -20 -53 47 c-54 49 -91 65 -91
40z"/>
<path d="M2730 3225 c0 -18 -46 -31 -63 -17 -22 18 -108 -2 -134 -32 -28 -32
-29 -45 -5 -52 9 -3 38 -14 64 -25 26 -10 58 -19 72 -19 28 0 105 42 88 48 -7
2 -2 14 13 30 34 37 21 42 -16 6 l-31 -29 21 43 c21 41 21 62 0 62 -5 0 -9 -7
-9 -15z m-10 -45 c0 -14 -51 -50 -61 -44 -5 3 -7 9 -4 14 3 5 -16 3 -42 -5
-26 -8 -49 -12 -52 -10 -5 5 63 35 79 35 6 0 9 4 6 9 -4 5 -1 11 6 13 17 6 68
-3 68 -12z"/>
<path d="M1932 3213 c2 -4 10 -22 17 -40 11 -27 20 -33 79 -49 37 -9 80 -24
95 -31 16 -8 32 -11 35 -8 11 11 -57 63 -97 76 -20 7 -58 23 -85 36 -26 13
-46 21 -44 16z"/>
<path d="M1500 3176 c0 -14 40 -30 50 -20 5 6 -29 34 -42 34 -4 0 -8 -6 -8
-14z"/>
<path d="M1974 3116 c11 -9 29 -16 40 -16 17 0 18 -2 6 -10 -12 -8 -12 -10 5
-11 l20 0 -20 -9 c-11 -5 -18 -9 -15 -10 107 -29 180 -45 180 -40 0 24 -80 71
-151 88 -26 7 -55 14 -65 18 -18 5 -18 5 0 -10z"/>
<path d="M2535 3091 c22 -10 54 -21 70 -24 19 -4 10 3 -24 18 -29 14 -61 25
-70 25 -9 0 2 -9 24 -19z"/>
<path d="M1510 3071 c0 -10 50 -25 57 -18 2 3 -10 9 -26 15 -17 6 -31 7 -31 3z"/>
<path d="M2656 3046 c-19 -9 -24 -15 -15 -18 8 -3 -24 -7 -71 -10 -51 -4 -100
-13 -123 -24 -27 -13 -40 -15 -48 -7 -8 8 -3 16 20 27 40 21 40 27 -1 14 -18
-6 -38 -12 -45 -14 -8 -2 0 -21 20 -52 24 -35 37 -47 52 -44 11 2 45 -8 75
-22 30 -14 63 -26 72 -26 25 0 66 21 72 36 4 12 0 11 -24 -1 -16 -8 -42 -15
-57 -14 -25 0 -24 2 12 14 33 11 36 13 15 15 -23 1 -22 3 10 14 35 13 48 31
68 94 11 35 10 36 -32 18z"/>
<path d="M2005 3039 c3 -4 19 -10 35 -14 17 -4 28 -11 24 -16 -3 -5 0 -9 6 -9
6 0 9 -4 6 -9 -6 -10 21 -18 99 -31 28 -5 59 -11 70 -15 17 -6 16 -3 -5 14
-14 12 -37 28 -52 36 -32 18 -190 56 -183 44z"/>
<path d="M2349 2975 c17 -22 31 -47 31 -57 0 -9 5 -20 10 -23 6 -3 10 3 10 13
0 11 -18 39 -41 63 -40 44 -41 44 -10 4z"/>
<path d="M1530 2986 c0 -14 21 -26 46 -26 25 0 15 18 -16 29 -24 8 -30 7 -30
-3z"/>
<path d="M2094 2952 c4 -6 22 -14 41 -17 109 -17 111 -17 90 -25 -15 -6 -16
-9 -4 -9 17 -1 49 -32 49 -47 0 -6 -8 -19 -19 -30 -10 -11 -24 -31 -31 -44 -9
-17 1 -12 39 20 54 46 62 67 33 93 -41 37 -217 89 -198 59z"/>
<path d="M1550 2924 c0 -17 76 -166 117 -226 62 -95 178 -209 272 -269 42 -27
79 -49 84 -49 4 0 7 10 7 23 0 16 -16 31 -57 56 -83 51 -205 172 -260 258 -26
42 -60 89 -75 104 -14 16 -23 31 -18 34 16 10 -3 46 -31 60 -30 16 -39 18 -39
9z"/>
<path d="M2426 2891 c-22 -24 -29 -75 -18 -131 l10 -45 1 52 c1 43 5 55 27 72
22 17 36 20 88 16 41 -3 53 -2 36 4 -14 4 -46 18 -72 30 -57 25 -51 25 -72 2z"/>
<path d="M2625 2860 c-18 -8 -17 -9 8 -9 15 -1 27 4 27 9 0 12 -8 12 -35 0z"/>
<path d="M2325 2754 c-31 -28 -52 -40 -56 -33 -4 8 -13 2 -24 -15 -13 -19 -20
-23 -26 -15 -4 8 -18 -5 -38 -37 -17 -27 -31 -44 -31 -39 -1 15 -31 -44 -47
-90 l-13 -40 4 45 c4 35 3 40 -4 22 -11 -26 -30 -175 -30 -234 l0 -38 60 47
c33 25 58 48 55 51 -2 3 -12 -1 -21 -9 -17 -14 73 146 111 196 13 17 37 38 55
49 l32 18 -18 -33 -17 -34 23 20 c46 42 66 116 47 177 l-12 36 -50 -44z"/>
<path d="M2422 2677 c-4 -55 -33 -102 -104 -168 l-73 -66 32 -17 c18 -9 49
-16 70 -15 33 0 35 1 15 9 -37 15 -36 36 2 95 49 73 68 121 63 159 -4 29 -4
30 -5 3z"/>
<path d="M2186 2329 c-4 -8 9 -56 27 -105 38 -98 62 -190 74 -274 6 -49 8 -52
14 -25 4 19 7 -4 9 -65 1 -69 4 -88 11 -70 6 18 7 7 4 -36 -4 -52 -20 -115
-59 -229 -4 -11 2 -4 13 15 62 107 89 259 72 401 -13 102 -63 253 -97 294
l-25 30 11 -28 c5 -16 10 -34 10 -40 -1 -22 -30 41 -44 95 -9 34 -16 47 -20
37z"/>
<path d="M2324 2298 c11 -17 29 -28 53 -31 43 -7 53 -3 53 24 0 13 -7 19 -22
19 -13 0 -40 3 -62 7 l-38 6 16 -25z"/>
<path d="M2077 2236 c-4 -10 0 -85 9 -167 16 -139 16 -159 0 -301 -9 -84 -25
-191 -35 -237 -18 -83 -18 -84 0 -60 33 42 89 166 106 237 19 76 23 303 7 340
-7 17 -9 -2 -6 -75 2 -64 0 -93 -6 -84 -7 10 -12 5 -18 -20 l-8 -34 -7 40 c-4
22 -8 72 -9 110 -2 102 -24 274 -33 251z"/>
</g>
</svg>
